<?xml version="1.0" encoding="UTF-8" standalone="no"?><!DOCTYPE svg PUBLIC "-//W3C//DTD SVG 1.1//EN" "http://www.w3.org/Graphics/SVG/1.1/DTD/svg11.dtd"><svg width="100%" height="100%" viewBox="0 0 800 800" version="1.1" xmlns="http://www.w3.org/2000/svg" xmlns:xlink="http://www.w3.org/1999/xlink" xml:space="preserve" style="fill-rule:evenodd;clip-rule:evenodd;stroke-linecap:round;stroke-linejoin:round;stroke-miterlimit:1.5;"><g><g><path d="M711.811,309.041l0,169.64l-41.186,0l0,-145.861l41.186,-23.779Z" style="fill:url(#_Linear1);"/><path d="M620.287,303.757l41.186,-23.778l50.338,29.062l-41.186,23.779l-50.338,-29.063Z" style="fill:url(#_Radial2);"/><path d="M620.287,303.757l0,174.924l50.338,0l0,-145.861l-50.338,-29.063Z" style="fill:url(#_Linear3);"/></g><g><path d="M646.674,305.506c-1.241,-0.716 -2.004,-2.041 -2,-3.473c0.003,-1.433 0.772,-2.754 2.016,-3.464c2.318,-1.324 4.906,-2.801 7.002,-3.998c2.538,-1.449 5.664,-1.398 8.154,0.132c6.026,3.702 17.433,10.711 24.663,15.153c1.272,0.781 2.003,2.205 1.896,3.694c-0.106,1.488 -1.032,2.794 -2.402,3.386c-2.551,1.103 -5.329,2.304 -7.477,3.233c-2.322,1.004 -4.983,0.85 -7.175,-0.415c-5.801,-3.349 -17.512,-10.11 -24.677,-14.248Z" style="fill-opacity:0.501961;"/><g id="Celda-Solar"><path d="M641.689,302.628c-0.258,-0.149 -0.437,-0.405 -0.486,-0.7c-0.05,-0.294 0.035,-0.595 0.23,-0.82c2.327,-2.688 9.143,-10.558 11.804,-13.63c0.627,-0.725 1.681,-0.902 2.511,-0.423c5.705,3.294 26.762,15.451 31.716,18.311c0.258,0.149 0.436,0.406 0.486,0.7c0.049,0.294 -0.035,0.595 -0.23,0.821c-2.328,2.687 -9.144,10.557 -11.804,13.629c-0.628,0.725 -1.682,0.903 -2.512,0.423c-5.705,-3.294 -26.761,-15.45 -31.715,-18.311Z" style="fill:url(#_Radial4);stroke:#dcdcdc;stroke-width:1px;"/><path d="M644.06,303.997l13.677,-15.793" style="fill:none;stroke:#dcdcdc;stroke-width:0.2px;"/><path d="M645.2,296.758l34.194,19.743" style="fill:none;stroke:#dcdcdc;stroke-width:0.2px;"/><path d="M649.74,291.483l34.194,19.742" style="fill:none;stroke:#dcdcdc;stroke-width:0.2px;"/><path d="M647.479,305.971l13.678,-15.793" style="fill:none;stroke:#dcdcdc;stroke-width:0.2px;"/><path d="M650.899,307.946l13.677,-15.794" style="fill:none;stroke:#dcdcdc;stroke-width:0.2px;"/><path d="M654.318,309.92l13.678,-15.794" style="fill:none;stroke:#dcdcdc;stroke-width:0.2px;"/><path d="M657.737,311.894l13.678,-15.794" style="fill:none;stroke:#dcdcdc;stroke-width:0.2px;"/><path d="M661.157,313.868l13.678,-15.793" style="fill:none;stroke:#dcdcdc;stroke-width:0.2px;"/><path d="M664.576,315.842l13.678,-15.793" style="fill:none;stroke:#dcdcdc;stroke-width:0.2px;"/><path d="M667.996,317.817l13.677,-15.794" style="fill:none;stroke:#dcdcdc;stroke-width:0.2px;"/><path d="M671.415,319.791l13.678,-15.794" style="fill:none;stroke:#dcdcdc;stroke-width:0.2px;"/></g></g></g><g><g><path d="M460.629,292.416l0,386.632l-41.186,-0.643l0,-362.211l41.186,-23.778Z" style="fill:url(#_Linear5);"/><path d="M369.105,287.132l41.186,-23.779l50.338,29.063l-41.186,23.778l-50.338,-29.062Z" style="fill:url(#_Radial6);"/><path d="M369.105,287.132l0,174.924l50.338,0l0,-145.862l-50.338,-29.062Z" style="fill:url(#_Linear7);"/></g><g><path d="M395.935,289.323c-1.241,-0.716 -2.004,-2.041 -2,-3.473c0.003,-1.433 0.772,-2.754 2.016,-3.464c2.318,-1.323 4.906,-2.801 7.001,-3.998c2.538,-1.449 5.665,-1.398 8.155,0.132c6.026,3.702 17.433,10.711 24.663,15.153c1.272,0.781 2.002,2.205 1.896,3.694c-0.106,1.488 -1.033,2.794 -2.402,3.386c-2.552,1.103 -5.33,2.304 -7.477,3.233c-2.323,1.004 -4.983,0.85 -7.175,-0.415c-5.801,-3.349 -17.512,-10.11 -24.677,-14.248Z" style="fill-opacity:0.501961;"/><g id="Celda-Solar1"><path d="M390.95,286.445c-0.259,-0.149 -0.437,-0.405 -0.486,-0.7c-0.05,-0.294 0.034,-0.595 0.23,-0.82c2.327,-2.687 9.143,-10.558 11.803,-13.63c0.628,-0.725 1.682,-0.902 2.512,-0.423c5.705,3.294 26.762,15.451 31.715,18.311c0.259,0.149 0.437,0.406 0.487,0.7c0.049,0.294 -0.035,0.595 -0.231,0.821c-2.327,2.687 -9.143,10.557 -11.803,13.63c-0.628,0.724 -1.682,0.902 -2.512,0.422c-5.705,-3.293 -26.761,-15.45 -31.715,-18.311Z" style="fill:url(#_Radial8);stroke:#dcdcdc;stroke-width:1px;"/><path d="M393.32,287.814l13.678,-15.793" style="fill:none;stroke:#dcdcdc;stroke-width:0.2px;"/><path d="M394.46,280.576l34.195,19.742" style="fill:none;stroke:#dcdcdc;stroke-width:0.2px;"/><path d="M399.001,275.3l34.194,19.742" style="fill:none;stroke:#dcdcdc;stroke-width:0.2px;"/><path d="M396.74,289.788l13.678,-15.793" style="fill:none;stroke:#dcdcdc;stroke-width:0.2px;"/><path d="M400.159,291.763l13.678,-15.794" style="fill:none;stroke:#dcdcdc;stroke-width:0.2px;"/><path d="M403.579,293.737l13.677,-15.794" style="fill:none;stroke:#dcdcdc;stroke-width:0.2px;"/><path d="M406.998,295.711l13.678,-15.794" style="fill:none;stroke:#dcdcdc;stroke-width:0.2px;"/><path d="M410.418,297.685l13.677,-15.793" style="fill:none;stroke:#dcdcdc;stroke-width:0.2px;"/><path d="M413.837,299.66l13.678,-15.794" style="fill:none;stroke:#dcdcdc;stroke-width:0.2px;"/><path d="M417.256,301.634l13.678,-15.794" style="fill:none;stroke:#dcdcdc;stroke-width:0.2px;"/><path d="M420.676,303.608l13.678,-15.794" style="fill:none;stroke:#dcdcdc;stroke-width:0.2px;"/></g></g></g><g><g><path d="M632.269,345.226l0,374.7l-90.97,0l0,-322.178l90.97,-52.522Z" style="fill:url(#_Linear9);"/><path d="M430.112,333.554l90.971,-52.522l111.186,64.194l-90.97,52.522l-111.187,-64.194Z" style="fill:url(#_Radial10);"/><path d="M430.112,333.554l0,386.372l111.187,0l0,-322.178l-111.187,-64.194Z" style="fill:url(#_Linear11);"/></g><g><path d="M480.172,333.984c-1.24,-0.716 -2.003,-2.041 -2,-3.474c0.004,-1.432 0.773,-2.754 2.017,-3.464c8.064,-4.604 22.12,-12.629 29.059,-16.591c2.538,-1.449 5.664,-1.399 8.155,0.131c13.01,7.994 53.913,33.126 69.961,42.986c1.271,0.781 2.002,2.205 1.896,3.694c-0.107,1.488 -1.033,2.793 -2.403,3.386c-8.929,3.861 -23.972,10.366 -30.897,13.36c-2.323,1.004 -4.984,0.851 -7.175,-0.415c-12.201,-7.044 -53.102,-30.658 -68.613,-39.613Z" style="fill-opacity:0.501961;"/><g id="Celda-Solar2"><path d="M476.236,331.711c-0.517,-0.298 -0.873,-0.811 -0.972,-1.4c-0.099,-0.588 0.07,-1.19 0.46,-1.641c5.175,-5.975 21.577,-24.915 27.504,-31.758c1.255,-1.45 3.363,-1.805 5.024,-0.846c12.516,7.227 62.314,35.977 73.17,42.245c0.517,0.299 0.874,0.812 0.973,1.4c0.099,0.589 -0.07,1.191 -0.461,1.642c-5.174,5.975 -21.577,24.915 -27.503,31.758c-1.256,1.45 -3.363,1.804 -5.024,0.846c-12.517,-7.227 -62.314,-35.977 -73.171,-42.246Z" style="fill:url(#_Radial12);stroke:#dcdcdc;stroke-width:2px;"/><path d="M484.556,318.472l78.129,45.108" style="fill:none;stroke:#dcdcdc;stroke-width:0.5px;"/><path d="M494.93,306.418l78.129,45.108" style="fill:none;stroke:#dcdcdc;stroke-width:0.5px;"/><path d="M481.952,335.011l31.251,-36.086" style="fill:none;stroke:#dcdcdc;stroke-width:0.5px;"/><path d="M489.765,339.522l31.251,-36.086" style="fill:none;stroke:#dcdcdc;stroke-width:0.5px;"/><path d="M497.578,344.033l31.251,-36.086" style="fill:none;stroke:#dcdcdc;stroke-width:0.5px;"/><path d="M505.391,348.544l31.251,-36.087" style="fill:none;stroke:#dcdcdc;stroke-width:0.5px;"/><path d="M513.203,353.054l31.252,-36.086" style="fill:none;stroke:#dcdcdc;stroke-width:0.5px;"/><path d="M521.016,357.565l31.252,-36.086" style="fill:none;stroke:#dcdcdc;stroke-width:0.5px;"/><path d="M528.829,362.076l31.252,-36.086" style="fill:none;stroke:#dcdcdc;stroke-width:0.5px;"/><path d="M536.642,366.587l31.252,-36.086" style="fill:none;stroke:#dcdcdc;stroke-width:0.5px;"/><path d="M544.455,371.098l31.252,-36.087" style="fill:none;stroke:#dcdcdc;stroke-width:0.5px;"/></g></g></g><g><g><path d="M775.959,440l0,328l-79.633,0l0,-282.024l79.633,-45.976Z" style="fill:url(#_Linear13);"/><path d="M598.997,429.783l79.633,-45.976l97.329,56.193l-79.633,45.976l-97.329,-56.193Z" style="fill:url(#_Radial14);"/><path d="M598.997,429.783l0,338.217l97.329,0l0,-282.024l-97.329,-56.193Z" style="fill:url(#_Linear15);"/></g><g><path d="M649.349,431.658c-1.241,-0.716 -2.003,-2.041 -2,-3.474c0.004,-1.432 0.773,-2.753 2.017,-3.464c6.854,-3.913 17.838,-10.184 23.768,-13.57c2.538,-1.449 5.664,-1.399 8.154,0.131c11.564,7.105 44.881,27.576 59.097,36.31c1.271,0.781 2.002,2.205 1.895,3.694c-0.106,1.488 -1.032,2.794 -2.402,3.386c-7.584,3.279 -19.346,8.365 -25.28,10.931c-2.322,1.004 -4.983,0.851 -7.175,-0.415c-10.876,-6.279 -44.297,-25.574 -58.074,-33.529Z" style="fill-opacity:0.501961;"/><g id="Celda-Solar3"><path d="M645.413,429.386c-0.517,-0.299 -0.874,-0.812 -0.973,-1.401c-0.099,-0.588 0.07,-1.19 0.461,-1.641c4.61,-5.323 18.019,-20.806 23.288,-26.891c1.256,-1.45 3.363,-1.804 5.024,-0.845c11.316,6.533 52.805,30.487 62.633,36.161c0.516,0.298 0.873,0.811 0.972,1.4c0.099,0.588 -0.07,1.19 -0.46,1.641c-4.611,5.323 -18.019,20.806 -23.289,26.891c-1.255,1.45 -3.363,1.804 -5.024,0.846c-11.315,-6.534 -52.805,-30.488 -62.632,-36.161Z" style="fill:url(#_Radial16);stroke:#dcdcdc;stroke-width:2px;"/><path d="M652.328,417.768l67.591,39.024" style="fill:none;stroke:#dcdcdc;stroke-width:0.5px;"/><path d="M661.303,407.341l67.591,39.023" style="fill:none;stroke:#dcdcdc;stroke-width:0.5px;"/><path d="M650.075,432.077l27.036,-31.219" style="fill:none;stroke:#dcdcdc;stroke-width:0.5px;"/><path d="M656.834,435.979l27.036,-31.218" style="fill:none;stroke:#dcdcdc;stroke-width:0.5px;"/><path d="M663.593,439.882l27.036,-31.219" style="fill:none;stroke:#dcdcdc;stroke-width:0.5px;"/><path d="M670.352,443.784l27.036,-31.219" style="fill:none;stroke:#dcdcdc;stroke-width:0.5px;"/><path d="M677.111,447.687l27.036,-31.219" style="fill:none;stroke:#dcdcdc;stroke-width:0.5px;"/><path d="M683.87,451.589l27.036,-31.219" style="fill:none;stroke:#dcdcdc;stroke-width:0.5px;"/><path d="M690.629,455.491l27.037,-31.219" style="fill:none;stroke:#dcdcdc;stroke-width:0.5px;"/><path d="M697.388,459.394l27.037,-31.219" style="fill:none;stroke:#dcdcdc;stroke-width:0.5px;"/><path d="M704.147,463.296l27.037,-31.219" style="fill:none;stroke:#dcdcdc;stroke-width:0.5px;"/></g></g></g><g><g><path d="M423.442,381.844l0,200.826l-48.757,0l0,-172.676l48.757,-28.15Z" style="fill:url(#_Linear17);"/><path d="M315.093,375.588l48.757,-28.15l59.592,34.406l-48.757,28.15l-59.592,-34.406Z" style="fill:url(#_Radial18);"/><path d="M315.093,375.588l0,207.082l59.592,0l0,-172.676l-59.592,-34.406Z" style="fill:url(#_Linear19);"/></g><g><path d="M350.357,378.027c-1.241,-0.717 -2.004,-2.041 -2,-3.474c0.003,-1.432 0.772,-2.754 2.016,-3.464c2.318,-1.323 4.906,-2.801 7.001,-3.997c2.538,-1.449 5.665,-1.399 8.155,0.131c6.026,3.702 17.433,10.711 24.663,15.154c1.272,0.781 2.003,2.205 1.896,3.693c-0.106,1.488 -1.033,2.794 -2.402,3.386c-2.552,1.103 -5.33,2.305 -7.477,3.233c-2.322,1.004 -4.983,0.851 -7.175,-0.415c-5.801,-3.349 -17.512,-10.11 -24.677,-14.247Z" style="fill-opacity:0.501961;"/><g id="Celda-Solar4"><path d="M345.372,375.149c-0.259,-0.149 -0.437,-0.406 -0.486,-0.7c-0.05,-0.295 0.034,-0.595 0.23,-0.821c2.327,-2.687 9.143,-10.558 11.803,-13.63c0.628,-0.725 1.682,-0.902 2.512,-0.422c5.705,3.293 26.762,15.45 31.716,18.31c0.258,0.15 0.436,0.406 0.486,0.7c0.049,0.295 -0.035,0.596 -0.231,0.821c-2.327,2.687 -9.143,10.558 -11.803,13.63c-0.628,0.725 -1.682,0.902 -2.512,0.423c-5.705,-3.294 -26.761,-15.451 -31.715,-18.311Z" style="fill:url(#_Radial20);stroke:#dcdcdc;stroke-width:1px;"/><path d="M347.743,376.518l13.677,-15.794" style="fill:none;stroke:#dcdcdc;stroke-width:0.2px;"/><path d="M348.882,369.279l34.195,19.742" style="fill:none;stroke:#dcdcdc;stroke-width:0.2px;"/><path d="M353.423,364.003l34.194,19.742" style="fill:none;stroke:#dcdcdc;stroke-width:0.2px;"/><path d="M351.162,378.492l13.678,-15.794" style="fill:none;stroke:#dcdcdc;stroke-width:0.2px;"/><path d="M354.581,380.466l13.678,-15.794" style="fill:none;stroke:#dcdcdc;stroke-width:0.2px;"/><path d="M358.001,382.44l13.678,-15.794" style="fill:none;stroke:#dcdcdc;stroke-width:0.2px;"/><path d="M361.42,384.414l13.678,-15.793" style="fill:none;stroke:#dcdcdc;stroke-width:0.2px;"/><path d="M364.84,386.389l13.677,-15.794" style="fill:none;stroke:#dcdcdc;stroke-width:0.2px;"/><path d="M368.259,388.363l13.678,-15.794" style="fill:none;stroke:#dcdcdc;stroke-width:0.2px;"/><path d="M371.679,390.337l13.677,-15.794" style="fill:none;stroke:#dcdcdc;stroke-width:0.2px;"/><path d="M375.098,392.311l13.678,-15.793" style="fill:none;stroke:#dcdcdc;stroke-width:0.2px;"/></g></g></g><g><g><path d="M335.316,416.79l0,200.826l-48.757,0l0,-172.676l48.757,-28.15Z" style="fill:url(#_Linear21);"/><path d="M226.967,410.534l48.757,-28.15l59.592,34.406l-48.757,28.15l-59.592,-34.406Z" style="fill:url(#_Radial22);"/><path d="M226.967,410.534l0,207.082l59.592,0l0,-172.676l-59.592,-34.406Z" style="fill:url(#_Linear23);"/></g><g><path d="M262.23,412.973c-1.24,-0.717 -2.003,-2.042 -2,-3.474c0.004,-1.433 0.773,-2.754 2.017,-3.464c2.317,-1.323 4.906,-2.801 7.001,-3.997c2.538,-1.449 5.665,-1.399 8.155,0.131c6.025,3.702 17.433,10.711 24.663,15.153c1.271,0.782 2.002,2.206 1.896,3.694c-0.107,1.488 -1.033,2.794 -2.402,3.386c-2.552,1.103 -5.33,2.305 -7.477,3.233c-2.323,1.004 -4.984,0.851 -7.175,-0.415c-5.802,-3.349 -17.512,-10.11 -24.678,-14.247Z" style="fill-opacity:0.501961;"/><g id="Celda-Solar5"><path d="M257.245,410.095c-0.258,-0.149 -0.436,-0.406 -0.486,-0.7c-0.049,-0.295 0.035,-0.595 0.231,-0.821c2.327,-2.687 9.143,-10.558 11.803,-13.63c0.628,-0.725 1.682,-0.902 2.512,-0.422c5.705,3.293 26.761,15.45 31.715,18.31c0.259,0.149 0.437,0.406 0.486,0.7c0.05,0.295 -0.034,0.595 -0.23,0.821c-2.327,2.687 -9.143,10.558 -11.803,13.63c-0.628,0.725 -1.682,0.902 -2.512,0.422c-5.705,-3.293 -26.762,-15.45 -31.716,-18.31Z" style="fill:url(#_Radial24);stroke:#dcdcdc;stroke-width:1px;"/><path d="M259.616,411.464l13.678,-15.794" style="fill:none;stroke:#dcdcdc;stroke-width:0.2px;"/><path d="M260.756,404.225l34.194,19.742" style="fill:none;stroke:#dcdcdc;stroke-width:0.2px;"/><path d="M265.297,398.949l34.194,19.742" style="fill:none;stroke:#dcdcdc;stroke-width:0.2px;"/><path d="M263.036,413.438l13.677,-15.794" style="fill:none;stroke:#dcdcdc;stroke-width:0.2px;"/><path d="M266.455,415.412l13.678,-15.794" style="fill:none;stroke:#dcdcdc;stroke-width:0.2px;"/><path d="M269.875,417.386l13.677,-15.794" style="fill:none;stroke:#dcdcdc;stroke-width:0.2px;"/><path d="M273.294,419.36l13.678,-15.793" style="fill:none;stroke:#dcdcdc;stroke-width:0.2px;"/><path d="M276.713,421.335l13.678,-15.794" style="fill:none;stroke:#dcdcdc;stroke-width:0.2px;"/><path d="M280.133,423.309l13.678,-15.794" style="fill:none;stroke:#dcdcdc;stroke-width:0.2px;"/><path d="M283.552,425.283l13.678,-15.794" style="fill:none;stroke:#dcdcdc;stroke-width:0.2px;"/><path d="M286.972,427.257l13.677,-15.793" style="fill:none;stroke:#dcdcdc;stroke-width:0.2px;"/></g></g></g><g><g><path d="M244.146,558.789l0,241.211l-94.103,0l0,-186.88l94.103,-54.331Z" style="fill:url(#_Linear25);"/><path d="M35.028,546.716l94.103,-54.331l115.015,66.404l-94.103,54.331l-115.015,-66.404Z" style="fill:url(#_Radial26);"/><path d="M35.028,546.716l0,253.284l115.015,0l0,-186.88l-115.015,-66.404Z" style="fill:url(#_Linear27);"/></g><g><path d="M88.577,547.248c-1.24,-0.717 -2.003,-2.042 -2,-3.474c0.004,-1.433 0.773,-2.754 2.017,-3.464c8.063,-4.604 22.12,-12.629 29.059,-16.591c2.538,-1.449 5.664,-1.399 8.155,0.131c13.01,7.994 53.913,33.125 69.961,42.986c1.271,0.781 2.002,2.205 1.896,3.693c-0.107,1.489 -1.033,2.794 -2.403,3.386c-8.929,3.861 -23.972,10.366 -30.897,13.361c-2.323,1.004 -4.984,0.85 -7.175,-0.415c-12.201,-7.044 -53.102,-30.658 -68.613,-39.613Z" style="fill-opacity:0.501961;"/><g id="Celda-Solar6"><path d="M84.641,544.975c-0.517,-0.298 -0.873,-0.812 -0.972,-1.4c-0.099,-0.588 0.07,-1.19 0.46,-1.641c5.175,-5.975 21.577,-24.915 27.504,-31.759c1.255,-1.449 3.363,-1.804 5.024,-0.845c12.516,7.226 62.313,35.977 73.17,42.245c0.517,0.298 0.874,0.812 0.973,1.4c0.099,0.589 -0.07,1.19 -0.461,1.641c-5.174,5.975 -21.577,24.915 -27.503,31.759c-1.256,1.449 -3.363,1.804 -5.024,0.845c-12.517,-7.226 -62.314,-35.977 -73.171,-42.245Z" style="fill:url(#_Radial28);stroke:#dcdcdc;stroke-width:2px;"/><path d="M92.961,531.736l78.129,45.107" style="fill:none;stroke:#dcdcdc;stroke-width:0.5px;"/><path d="M103.335,519.682l78.129,45.108" style="fill:none;stroke:#dcdcdc;stroke-width:0.5px;"/><path d="M90.357,548.275l31.251,-36.086" style="fill:none;stroke:#dcdcdc;stroke-width:0.5px;"/><path d="M98.17,552.786l31.251,-36.086" style="fill:none;stroke:#dcdcdc;stroke-width:0.5px;"/><path d="M105.983,557.297l31.251,-36.087" style="fill:none;stroke:#dcdcdc;stroke-width:0.5px;"/><path d="M113.796,561.807l31.251,-36.086" style="fill:none;stroke:#dcdcdc;stroke-width:0.5px;"/><path d="M121.608,566.318l31.252,-36.086" style="fill:none;stroke:#dcdcdc;stroke-width:0.5px;"/><path d="M129.421,570.829l31.252,-36.086" style="fill:none;stroke:#dcdcdc;stroke-width:0.5px;"/><path d="M137.234,575.34l31.252,-36.086" style="fill:none;stroke:#dcdcdc;stroke-width:0.5px;"/><path d="M145.047,579.851l31.252,-36.087" style="fill:none;stroke:#dcdcdc;stroke-width:0.5px;"/><path d="M152.86,584.361l31.252,-36.086" style="fill:none;stroke:#dcdcdc;stroke-width:0.5px;"/></g></g></g><g><g><path d="M775.959,632l0,168l-249.416,0l0,-24l249.416,-144Z" style="fill:url(#_Linear29);"/><path d="M221.703,600l249.415,-144l304.841,176l-249.416,144l-304.84,-176Z" style="fill:url(#_Radial30);"/><path d="M221.703,600l0,200l304.84,0l0,-24l-304.84,-176Z" style="fill:url(#_Linear31);"/></g><g><path d="M353.675,595.661c-1.241,-0.716 -2.004,-2.041 -2,-3.474c0.003,-1.432 0.772,-2.753 2.016,-3.464c19.087,-10.897 77.718,-44.373 93.798,-53.554c2.538,-1.449 5.665,-1.398 8.155,0.132c26.048,16.004 170.299,104.635 202.91,124.672c1.271,0.781 2.002,2.205 1.896,3.694c-0.107,1.488 -1.033,2.794 -2.403,3.386c-21.191,9.163 -83.767,36.222 -99.637,43.084c-2.323,1.004 -4.984,0.851 -7.175,-0.415c-24.132,-13.932 -166.391,-96.065 -197.56,-114.061Z" style="fill-opacity:0.501961;"/><g id="Celda-Solar7"><path d="M351.836,594.599c-1.034,-0.596 -1.747,-1.623 -1.945,-2.8c-0.198,-1.177 0.14,-2.38 0.921,-3.282c12.794,-14.773 60.633,-70.013 75.335,-86.989c2.51,-2.9 6.725,-3.609 10.047,-1.691c30.234,17.455 170.989,98.72 197.16,113.83c1.034,0.597 1.747,1.624 1.945,2.8c0.198,1.177 -0.14,2.381 -0.921,3.283c-12.794,14.773 -60.633,70.013 -75.335,86.989c-2.51,2.899 -6.726,3.609 -10.047,1.691c-30.234,-17.456 -170.989,-98.721 -197.16,-113.831Z" style="fill:url(#_Radial32);stroke:#dcdcdc;stroke-width:5px;"/><path d="M368.349,604.133l82.831,-95.644" style="fill:none;stroke:#dcdcdc;stroke-width:1px;"/><path d="M375.251,560.296l207.077,119.556" style="fill:none;stroke:#dcdcdc;stroke-width:1px;"/><path d="M402.748,528.349l207.077,119.556" style="fill:none;stroke:#dcdcdc;stroke-width:1px;"/><path d="M389.057,616.089l82.83,-95.645" style="fill:none;stroke:#dcdcdc;stroke-width:1px;"/><path d="M409.764,628.044l82.831,-95.644" style="fill:none;stroke:#dcdcdc;stroke-width:1px;"/><path d="M430.472,640l82.831,-95.645" style="fill:none;stroke:#dcdcdc;stroke-width:1px;"/><path d="M451.18,651.956l82.83,-95.645" style="fill:none;stroke:#dcdcdc;stroke-width:1px;"/><path d="M471.887,663.911l82.831,-95.644" style="fill:none;stroke:#dcdcdc;stroke-width:1px;"/><path d="M492.595,675.867l82.831,-95.645" style="fill:none;stroke:#dcdcdc;stroke-width:1px;"/><path d="M513.303,687.822l82.83,-95.644" style="fill:none;stroke:#dcdcdc;stroke-width:1px;"/><path d="M534.01,699.778l82.831,-95.645" style="fill:none;stroke:#dcdcdc;stroke-width:1px;"/></g></g></g><g><circle cx="176.582" cy="176.582" r="176.582" style="fill:url(#_Radial33);"/><ellipse cx="176.582" cy="176.582" rx="31.007" ry="30.045" style="fill:#f0ff00;"/></g><defs><linearGradient id="_Linear1" x1="0" y1="0" x2="1" y2="0" gradientUnits="userSpaceOnUse" gradientTransform="matrix(34.3213,0,0,19.8154,677.49,318.949)"><stop offset="0%" style="stop-color:#013c78;stop-opacity:1"/><stop offset="100%" style="stop-color:#0078a6;stop-opacity:1"/></linearGradient><radialGradient id="_Radial2" cx="0" cy="0" r="1" gradientUnits="userSpaceOnUse" gradientTransform="matrix(43.97,9.53376,-5.0915,23.4822,654.609,302.436)"><stop offset="0%" style="stop-color:#57ebdc;stop-opacity:1"/><stop offset="100%" style="stop-color:#00b9ec;stop-opacity:1"/></radialGradient><linearGradient id="_Linear3" x1="0" y1="0" x2="1" y2="0" gradientUnits="userSpaceOnUse" gradientTransform="matrix(32.0333,18.4944,-18.4944,32.0333,620.287,311.858)"><stop offset="0%" style="stop-color:#00afd7;stop-opacity:1"/><stop offset="100%" style="stop-color:#00648c;stop-opacity:1"/></linearGradient><radialGradient id="_Radial4" cx="0" cy="0" r="1" gradientUnits="userSpaceOnUse" gradientTransform="matrix(30.7233,17.7381,-13.1671,22.8062,652.882,297.246)"><stop offset="0%" style="stop-color:#26a9bd;stop-opacity:1"/><stop offset="100%" style="stop-color:#005b94;stop-opacity:1"/></radialGradient><linearGradient id="_Linear5" x1="0" y1="0" x2="1" y2="0" gradientUnits="userSpaceOnUse" gradientTransform="matrix(34.3213,0,0,19.8154,426.307,302.324)"><stop offset="0%" style="stop-color:#013c78;stop-opacity:1"/><stop offset="100%" style="stop-color:#0078a6;stop-opacity:1"/></linearGradient><radialGradient id="_Radial6" cx="0" cy="0" r="1" gradientUnits="userSpaceOnUse" gradientTransform="matrix(43.97,9.53376,-5.0915,23.4822,403.426,285.811)"><stop offset="0%" style="stop-color:#57ebdc;stop-opacity:1"/><stop offset="100%" style="stop-color:#00b9ec;stop-opacity:1"/></radialGradient><linearGradient id="_Linear7" x1="0" y1="0" x2="1" y2="0" gradientUnits="userSpaceOnUse" gradientTransform="matrix(32.0333,18.4944,-18.4944,32.0333,369.105,295.233)"><stop offset="0%" style="stop-color:#00afd7;stop-opacity:1"/><stop offset="100%" style="stop-color:#00648c;stop-opacity:1"/></linearGradient><radialGradient id="_Radial8" cx="0" cy="0" r="1" gradientUnits="userSpaceOnUse" gradientTransform="matrix(30.7233,17.7381,-13.1671,22.8062,402.143,281.063)"><stop offset="0%" style="stop-color:#26a9bd;stop-opacity:1"/><stop offset="100%" style="stop-color:#005b94;stop-opacity:1"/></radialGradient><linearGradient id="_Linear9" x1="0" y1="0" x2="1" y2="0" gradientUnits="userSpaceOnUse" gradientTransform="matrix(75.8089,0,0,43.7683,556.46,367.11)"><stop offset="0%" style="stop-color:#013c78;stop-opacity:1"/><stop offset="100%" style="stop-color:#0078a6;stop-opacity:1"/></linearGradient><radialGradient id="_Radial10" cx="0" cy="0" r="1" gradientUnits="userSpaceOnUse" gradientTransform="matrix(97.121,21.0582,-11.2461,51.8673,505.921,330.636)"><stop offset="0%" style="stop-color:#57ebdc;stop-opacity:1"/><stop offset="100%" style="stop-color:#00b9ec;stop-opacity:1"/></radialGradient><linearGradient id="_Linear11" x1="0" y1="0" x2="1" y2="0" gradientUnits="userSpaceOnUse" gradientTransform="matrix(70.755,40.8504,-40.8504,70.755,430.112,351.448)"><stop offset="0%" style="stop-color:#00afd7;stop-opacity:1"/><stop offset="100%" style="stop-color:#00648c;stop-opacity:1"/></linearGradient><radialGradient id="_Radial12" cx="0" cy="0" r="1" gradientUnits="userSpaceOnUse" gradientTransform="matrix(70.1984,40.5291,-30.085,52.1088,502.11,319.585)"><stop offset="0%" style="stop-color:#26a9bd;stop-opacity:1"/><stop offset="100%" style="stop-color:#005b94;stop-opacity:1"/></radialGradient><linearGradient id="_Linear13" x1="0" y1="0" x2="1" y2="0" gradientUnits="userSpaceOnUse" gradientTransform="matrix(66.3605,0,0,38.3133,709.598,459.157)"><stop offset="0%" style="stop-color:#013c78;stop-opacity:1"/><stop offset="100%" style="stop-color:#0078a6;stop-opacity:1"/></linearGradient><radialGradient id="_Radial14" cx="0" cy="0" r="1" gradientUnits="userSpaceOnUse" gradientTransform="matrix(85.0163,18.4336,-9.84443,45.4029,665.358,427.229)"><stop offset="0%" style="stop-color:#57ebdc;stop-opacity:1"/><stop offset="100%" style="stop-color:#00b9ec;stop-opacity:1"/></radialGradient><linearGradient id="_Linear15" x1="0" y1="0" x2="1" y2="0" gradientUnits="userSpaceOnUse" gradientTransform="matrix(61.9365,35.759,-35.759,61.9365,598.997,445.447)"><stop offset="0%" style="stop-color:#00afd7;stop-opacity:1"/><stop offset="100%" style="stop-color:#00648c;stop-opacity:1"/></linearGradient><radialGradient id="_Radial16" cx="0" cy="0" r="1" gradientUnits="userSpaceOnUse" gradientTransform="matrix(60.73,35.0625,-26.0271,45.0803,667.514,418.731)"><stop offset="0%" style="stop-color:#26a9bd;stop-opacity:1"/><stop offset="100%" style="stop-color:#005b94;stop-opacity:1"/></radialGradient><linearGradient id="_Linear17" x1="0" y1="0" x2="1" y2="0" gradientUnits="userSpaceOnUse" gradientTransform="matrix(40.6309,0,0,23.4582,382.811,393.573)"><stop offset="0%" style="stop-color:#013c78;stop-opacity:1"/><stop offset="100%" style="stop-color:#0078a6;stop-opacity:1"/></linearGradient><radialGradient id="_Radial18" cx="0" cy="0" r="1" gradientUnits="userSpaceOnUse" gradientTransform="matrix(52.0534,11.2864,-6.0275,27.799,355.724,374.024)"><stop offset="0%" style="stop-color:#57ebdc;stop-opacity:1"/><stop offset="100%" style="stop-color:#00b9ec;stop-opacity:1"/></radialGradient><linearGradient id="_Linear19" x1="0" y1="0" x2="1" y2="0" gradientUnits="userSpaceOnUse" gradientTransform="matrix(37.9222,21.8944,-21.8944,37.9222,315.093,385.179)"><stop offset="0%" style="stop-color:#00afd7;stop-opacity:1"/><stop offset="100%" style="stop-color:#00648c;stop-opacity:1"/></linearGradient><radialGradient id="_Radial20" cx="0" cy="0" r="1" gradientUnits="userSpaceOnUse" gradientTransform="matrix(30.7233,17.7381,-13.1671,22.8062,356.565,369.766)"><stop offset="0%" style="stop-color:#26a9bd;stop-opacity:1"/><stop offset="100%" style="stop-color:#005b94;stop-opacity:1"/></radialGradient><linearGradient id="_Linear21" x1="0" y1="0" x2="1" y2="0" gradientUnits="userSpaceOnUse" gradientTransform="matrix(40.6309,0,0,23.4582,294.685,428.519)"><stop offset="0%" style="stop-color:#013c78;stop-opacity:1"/><stop offset="100%" style="stop-color:#0078a6;stop-opacity:1"/></linearGradient><radialGradient id="_Radial22" cx="0" cy="0" r="1" gradientUnits="userSpaceOnUse" gradientTransform="matrix(52.0534,11.2864,-6.0275,27.799,267.598,408.97)"><stop offset="0%" style="stop-color:#57ebdc;stop-opacity:1"/><stop offset="100%" style="stop-color:#00b9ec;stop-opacity:1"/></radialGradient><linearGradient id="_Linear23" x1="0" y1="0" x2="1" y2="0" gradientUnits="userSpaceOnUse" gradientTransform="matrix(37.9222,21.8944,-21.8944,37.9222,226.967,420.125)"><stop offset="0%" style="stop-color:#00afd7;stop-opacity:1"/><stop offset="100%" style="stop-color:#00648c;stop-opacity:1"/></linearGradient><radialGradient id="_Radial24" cx="0" cy="0" r="1" gradientUnits="userSpaceOnUse" gradientTransform="matrix(30.7233,17.7381,-13.1671,22.8062,268.439,404.712)"><stop offset="0%" style="stop-color:#26a9bd;stop-opacity:1"/><stop offset="100%" style="stop-color:#005b94;stop-opacity:1"/></radialGradient><linearGradient id="_Linear25" x1="0" y1="0" x2="1" y2="0" gradientUnits="userSpaceOnUse" gradientTransform="matrix(78.4193,0,0,45.2754,165.727,581.427)"><stop offset="0%" style="stop-color:#013c78;stop-opacity:1"/><stop offset="100%" style="stop-color:#0078a6;stop-opacity:1"/></linearGradient><radialGradient id="_Radial26" cx="0" cy="0" r="1" gradientUnits="userSpaceOnUse" gradientTransform="matrix(100.465,21.7833,-11.6333,53.6533,113.447,543.697)"><stop offset="0%" style="stop-color:#57ebdc;stop-opacity:1"/><stop offset="100%" style="stop-color:#00b9ec;stop-opacity:1"/></radialGradient><linearGradient id="_Linear27" x1="0" y1="0" x2="1" y2="0" gradientUnits="userSpaceOnUse" gradientTransform="matrix(73.1913,42.257,-42.257,73.1913,35.0279,565.226)"><stop offset="0%" style="stop-color:#00afd7;stop-opacity:1"/><stop offset="100%" style="stop-color:#00648c;stop-opacity:1"/></linearGradient><radialGradient id="_Radial28" cx="0" cy="0" r="1" gradientUnits="userSpaceOnUse" gradientTransform="matrix(70.1984,40.5291,-30.085,52.1088,110.515,532.848)"><stop offset="0%" style="stop-color:#26a9bd;stop-opacity:1"/><stop offset="100%" style="stop-color:#005b94;stop-opacity:1"/></radialGradient><linearGradient id="_Linear29" x1="0" y1="0" x2="1" y2="0" gradientUnits="userSpaceOnUse" gradientTransform="matrix(207.846,0,0,120,568.113,692)"><stop offset="0%" style="stop-color:#013c78;stop-opacity:1"/><stop offset="100%" style="stop-color:#0078a6;stop-opacity:1"/></linearGradient><radialGradient id="_Radial30" cx="0" cy="0" r="1" gradientUnits="userSpaceOnUse" gradientTransform="matrix(266.277,57.7354,-30.8335,142.205,429.549,592)"><stop offset="0%" style="stop-color:#57ebdc;stop-opacity:1"/><stop offset="100%" style="stop-color:#00b9ec;stop-opacity:1"/></radialGradient><linearGradient id="_Linear31" x1="0" y1="0" x2="1" y2="0" gradientUnits="userSpaceOnUse" gradientTransform="matrix(193.99,112,-112,193.99,221.703,649.06)"><stop offset="0%" style="stop-color:#00afd7;stop-opacity:1"/><stop offset="100%" style="stop-color:#00648c;stop-opacity:1"/></linearGradient><radialGradient id="_Radial32" cx="0" cy="0" r="1" gradientUnits="userSpaceOnUse" gradientTransform="matrix(186.057,107.42,-79.7387,138.112,421.776,563.246)"><stop offset="0%" style="stop-color:#26a9bd;stop-opacity:1"/><stop offset="100%" style="stop-color:#005b94;stop-opacity:1"/></radialGradient><radialGradient id="_Radial33" cx="0" cy="0" r="1" gradientUnits="userSpaceOnUse" gradientTransform="matrix(176.582,-1.1747e-13,1.1747e-13,176.582,176.582,176.582)"><stop offset="0%" style="stop-color:#ffe900;stop-opacity:0.701961"/><stop offset="49%" style="stop-color:#e6e840;stop-opacity:0.52549"/><stop offset="100%" style="stop-color:#9ce4ff;stop-opacity:0"/><stop offset="100%" style="stop-color:#9ce4ff;stop-opacity:0"/></radialGradient></defs></svg>