<?xml version="1.0" encoding="UTF-8" standalone="no"?><!DOCTYPE svg PUBLIC "-//W3C//DTD SVG 1.1//EN" "http://www.w3.org/Graphics/SVG/1.1/DTD/svg11.dtd"><svg width="100%" height="100%" viewBox="0 0 1280 720" version="1.1" xmlns="http://www.w3.org/2000/svg" xmlns:xlink="http://www.w3.org/1999/xlink" xml:space="preserve" style="fill-rule:evenodd;clip-rule:evenodd;stroke-linecap:round;stroke-linejoin:round;stroke-miterlimit:1.5;"><rect x="0" y="0" width="1280" height="720" style="fill:url(#_Linear1);"/><path d="M72,0l0,720" style="fill:none;stroke:#b4c8ff;stroke-width:2px;"/><path d="M144,0l0,720" style="fill:none;stroke:#b4c8ff;stroke-width:2px;"/><path d="M216,0l0,720" style="fill:none;stroke:#b4c8ff;stroke-width:2px;"/><path d="M288,0l0,720" style="fill:none;stroke:#b4c8ff;stroke-width:2px;"/><path d="M360,0l0,720" style="fill:none;stroke:#b4c8ff;stroke-width:2px;"/><path d="M432,0l0,720" style="fill:none;stroke:#b4c8ff;stroke-width:2px;"/><path d="M504,0l0,720" style="fill:none;stroke:#b4c8ff;stroke-width:2px;"/><path d="M576,0l0,720" style="fill:none;stroke:#b4c8ff;stroke-width:2px;"/><path d="M648,0l0,720" style="fill:none;stroke:#b4c8ff;stroke-width:2px;"/><path d="M720,0l0,720" style="fill:none;stroke:#b4c8ff;stroke-width:2px;"/><path d="M792,0l0,720" style="fill:none;stroke:#b4c8ff;stroke-width:2px;"/><path d="M864,0l0,720" style="fill:none;stroke:#b4c8ff;stroke-width:2px;"/><path d="M936,0l0,720" style="fill:none;stroke:#b4c8ff;stroke-width:2px;"/><path d="M1008,0l0,720" style="fill:none;stroke:#b4c8ff;stroke-width:2px;"/><path d="M1080,0l0,720" style="fill:none;stroke:#b4c8ff;stroke-width:2px;"/><path d="M1152,0l0,720" style="fill:none;stroke:#b4c8ff;stroke-width:2px;"/><path d="M1224,0l0,720" style="fill:none;stroke:#b4c8ff;stroke-width:2px;"/><path d="M0,120l1280,0" style="fill:none;stroke:#b4c8ff;stroke-width:2px;"/><path d="M0,240l1280,0" style="fill:none;stroke:#b4c8ff;stroke-width:2px;"/><path d="M0,360l1280,0" style="fill:none;stroke:#b4c8ff;stroke-width:2px;"/><path d="M0,480l1280,0" style="fill:none;stroke:#b4c8ff;stroke-width:2px;"/><path d="M0,600l1280,0" style="fill:none;stroke:#b4c8ff;stroke-width:2px;"/><defs><linearGradient id="_Linear1" x1="0" y1="0" x2="1" y2="0" gradientUnits="userSpaceOnUse" gradientTransform="matrix(1280,0,0,720,0,360)"><stop offset="0%" style="stop-color:#0077a0;stop-opacity:1"/><stop offset="100%" style="stop-color:#00325a;stop-opacity:1"/></linearGradient></defs></svg>